<svg xmlns="http://www.w3.org/2000/svg" xmlns:xlink="http://www.w3.org/1999/xlink" width="500" zoomAndPan="magnify" viewBox="0 0 375 374.999991" height="500" preserveAspectRatio="xMidYMid meet" version="1.0"><defs><clipPath id="8161d72bd3"><path d="M 47.960938 47.960938 L 326.960938 47.960938 L 326.960938 326.960938 L 47.960938 326.960938 Z M 47.960938 47.960938 " clip-rule="nonzero"/></clipPath></defs><g clip-path="url(#8161d72bd3)"><path fill="#f05454" d="M 145.714844 47.949219 L 50.859375 47.949219 C 49.253906 47.949219 47.949219 49.25 47.949219 50.859375 L 47.949219 304.996094 C 47.949219 308.234375 52.449219 309.046875 53.582031 306.011719 L 148.441406 51.875 C 149.148438 49.976562 147.746094 47.949219 145.714844 47.949219 Z M 202.90625 93.484375 L 188.050781 136.308594 L 188.007812 136.1875 L 161.472656 212.878906 C 160.347656 216.125 162.757812 219.511719 166.191406 219.511719 L 285.597656 219.511719 C 287.683594 219.511719 289.546875 220.804688 290.28125 222.757812 L 321.378906 306.027344 C 322.511719 309.058594 327.007812 308.246094 327.007812 305.011719 L 327.007812 50.859375 C 327.007812 49.25 325.707031 47.949219 324.101562 47.949219 L 220.765625 47.949219 C 219.527344 47.949219 218.425781 48.734375 218.019531 49.90625 Z M 239.480469 286.046875 L 252.585938 323.132812 C 253.253906 325.023438 251.851562 327.007812 249.84375 327.007812 L 126.667969 327.007812 C 124.652344 327.007812 123.25 325.011719 123.933594 323.117188 L 137.300781 286.019531 C 138.011719 284.035156 139.894531 282.714844 142 282.714844 L 234.773438 282.714844 C 236.890625 282.714844 238.777344 284.050781 239.480469 286.046875 " fill-opacity="1" fill-rule="nonzero"/></g></svg>